<svg id="Layer_1" data-name="Layer 1" xmlns="http://www.w3.org/2000/svg" viewBox="0 0 425.2 50.76"><defs><style>.cls-1{fill:#1d1d1b;}</style></defs><path class="cls-1" d="M204,25.39,203.48,28H193l.52-2.43a2.91,2.91,0,0,0-.45-2.74,3.8,3.8,0,0,0-2.88-1h-3.48l-5.93,28.56-11-.08,6.06-28.48h-3.33l1.57-7.36h20.49a11.53,11.53,0,0,1,8,2.8C205,19.43,204.5,23.14,204,25.39Z"/><path class="cls-1" d="M48.25.8H65L54.5,50.27l-11.12,0L51.8,12.37l-18,32.43H24l-5-31.16L11.15,50.27H0L10.52.8H27l4.5,31.28Z"/><path class="cls-1" d="M85,21.8c1.26,0,2.36.06,3,.85,1.47,1.64,1,3.28.55,5.6l-1.8,8.45c-.28,1.34-.9,4.26-1.88,5.12a6.86,6.86,0,0,1-4.76,1.58H76.37a3.76,3.76,0,0,1-3-1.34c-.66-1-.53-3.47-.06-5.66l1.69-8c.47-2.19.57-3.77,2.25-5.36A5.16,5.16,0,0,1,81,21.8Zm6.27,26.28c4.83-3,5.93-8.88,6.5-11.56l1.76-8.27c.53-2.5.87-7.85-.92-10.23-2.22-2.92-5.89-3.53-10.56-3.53H80.77c-4.27,0-7.82.73-10.85,3-4,3.1-5,7.36-5.48,9.79l-2,9.43c-.94,4.45-1.15,8.4,1.46,11,2.26,2.37,6.8,3,9.25,3H80.5A19.32,19.32,0,0,0,91.27,48.08Z"/><path class="cls-1" d="M130.1,14.62,128.54,22h-9.41l-3.3,15.52c-.3,1.39-.81,2.67.2,3.89,1.11,1.46,4.8,1.58,5.59,1.58h2.62l-1.56,7.3h-4.43c-4.27,0-8.19-.55-10.26-1.94-3.8-2.62-4-6-3.14-10.17L108.29,22h-4l1.56-7.36h4L112,4.52h10.84l-2.15,10.1Z"/><path class="cls-1" d="M152.39,21.8c1.26,0,2.36.06,3,.85,1.47,1.64,1,3.28.55,5.6l-1.8,8.45c-.28,1.34-.9,4.26-1.88,5.12a6.86,6.86,0,0,1-4.76,1.58h-3.72a3.76,3.76,0,0,1-3-1.34c-.66-1-.53-3.47-.06-5.66l1.69-8c.47-2.19.57-3.77,2.25-5.36a5.16,5.16,0,0,1,3.75-1.27Zm6.27,26.28c4.83-3,5.93-8.88,6.5-11.56l1.76-8.27c.53-2.5.87-7.85-.92-10.23-2.22-2.92-5.89-3.53-10.56-3.53h-7.27c-4.28,0-7.83.73-10.86,3-4,3.1-5,7.36-5.48,9.79l-2,9.43c-1,4.45-1.16,8.4,1.45,11,2.26,2.37,6.8,3,9.25,3h7.36A19.32,19.32,0,0,0,158.66,48.08Z"/><path class="cls-1" d="M204.09,25.39l-.54,2.55H193.11l.51-2.43a2.91,2.91,0,0,0-.44-2.74,3.81,3.81,0,0,0-2.88-1h-3.48l-4.43,20.81-1.66,7.84-10.8-.18,6-28.47h-3.32l1.56-7.37h20.49a11.6,11.6,0,0,1,8,2.8C205,19.42,204.57,23.13,204.09,25.39Z"/><path class="cls-1" d="M275,21.8c1.27,0,2.36.06,3,.85,1.47,1.64,1,3.28.55,5.6l-1.8,8.45c-.28,1.34-.91,4.26-1.88,5.12a6.88,6.88,0,0,1-4.76,1.58h-3.72a3.72,3.72,0,0,1-3-1.34c-.66-1-.53-3.47-.06-5.66l1.69-8c.47-2.19.57-3.77,2.25-5.36A5.14,5.14,0,0,1,271,21.8Zm6.28,26.28c4.83-3,5.92-8.88,6.49-11.56l1.76-8.27c.53-2.5.88-7.85-.91-10.23-2.23-2.92-5.89-3.53-10.56-3.53h-7.28c-4.27,0-7.83.73-10.85,3-4,3.1-5,7.36-5.48,9.79l-2,9.43c-.94,4.45-1.15,8.4,1.46,11,2.26,2.37,6.8,3,9.25,3h7.36A19.32,19.32,0,0,0,281.24,48.08Z"/><path class="cls-1" d="M325.72,25.39l-.55,2.55H314.73l.52-2.43a2.91,2.91,0,0,0-.45-2.74,3.78,3.78,0,0,0-2.87-1h-3.48l-5.94,28.56-11-.09,6.06-28.47h-3.32l1.56-7.37h20.49a11.58,11.58,0,0,1,8,2.8C326.67,19.42,326.19,23.13,325.72,25.39Z"/><path class="cls-1" d="M336.77,39.54a2.46,2.46,0,0,0,.85,2.73c1.16.85,1.48.85,3.53.85h6.57l4.55-21.41,1.53-7.06,10.9-.06-7.63,35.9H338.24c-3.79,0-8.07-.37-10.6-3-2.91-3-2.08-6.21-1.21-10.29l4.81-22.63h10.84Z"/><path class="cls-1" d="M398.29,16.23a10.25,10.25,0,0,1,2.58-1,14.43,14.43,0,0,1,4.73-.67h6.72c3.8,0,8.53.06,11.05,2.74,2.83,3,1.73,6.32.84,10.52L419.4,50.49l-10.83,0,1.51-7.09,3.77-17.77a3.15,3.15,0,0,0-.9-2.8c-.71-.79-2-.85-3.38-.85h-3a4.46,4.46,0,0,0-2.35.67c-1.1.67-1.33,1.76-1.58,2.92l-5.22,25H386.57l5.06-23.79c.34-1.59.61-3.23-.19-4-1.14-1-1.49-.79-4-.79h-5.85L375.5,50.49H364.66L370.73,22h-2.61l1.56-7.36H391.2a12.54,12.54,0,0,1,4.76.67A8.59,8.59,0,0,1,398.29,16.23Z"/><path class="cls-1" d="M234.5,8l22,0,1.33-8H234.43c-4.11,0-7.79.5-10.71,2.74-4,3.1-5,7.37-5.49,9.8l-7.91,36.92h12l4.28-20.14h23.1l1.63-7.66h-23.1L229.47,16h0c.7-2.81,1.17-5.85,2.14-6.85A4.32,4.32,0,0,1,234.5,8Z"/></svg>